<svg width="512" height="512" viewBox="0 0 512 512" fill="none" xmlns="http://www.w3.org/2000/svg">
    <rect width="512" height="512" fill="#31111D" />
    <g clip-path="url(#clip0_21_4)">
        <path
            d="M358.818 143.635C350.153 143.635 343.104 150.7 343.104 159.385V352.711C343.897 373.611 373.804 373.536 374.592 352.711V159.385C374.592 150.701 367.516 143.635 358.818 143.635ZM256 143.635C247.302 143.635 240.227 150.7 240.227 159.385V352.711C241.021 373.582 270.987 373.565 271.774 352.711V159.385C271.774 150.701 264.698 143.635 256 143.635ZM307.408 201.223C298.744 201.223 291.696 208.288 291.696 216.972V295.124C292.489 316.025 322.395 315.948 323.183 295.124V216.972C323.183 208.288 316.106 201.223 307.408 201.223ZM410.227 230.017C401.563 230.017 394.513 237.082 394.513 245.767V266.33C395.306 287.231 425.212 287.154 426 266.33V245.767C426 237.082 418.924 230.017 410.227 230.017ZM101.774 230.017C93.0763 230.017 86 237.082 86 245.766V266.329C86.7955 287.169 116.702 287.215 117.487 266.329V245.766C117.487 237.082 110.438 230.017 101.774 230.017ZM153.183 172.429C144.485 172.429 137.408 179.494 137.408 188.179V323.917C138.204 344.758 168.111 344.802 168.896 323.917V188.179C168.896 179.494 161.847 172.429 153.183 172.429ZM204.592 86.0479C195.894 86.0479 188.818 93.1128 188.818 101.797V410.298C189.613 431.138 219.519 431.183 220.305 410.298V101.797C220.305 93.1128 213.256 86.0479 204.592 86.0479Z"
            fill="white" />
    </g>
    <defs>
        <clipPath id="clip0_21_4">
            <rect width="340" height="340" fill="white" transform="translate(86 86)" />
        </clipPath>
    </defs>
</svg>